<?xml version="1.0" encoding="UTF-8"?>
<svg width="310px" height="95px" viewBox="0 0 310 95" version="1.1" xmlns="http://www.w3.org/2000/svg" xmlns:xlink="http://www.w3.org/1999/xlink">
    <title>title</title>
    <g id="title" stroke="none" stroke-width="1" fill="none" fill-rule="evenodd">
        <path d="M99.5374736,41.6751958 C101.287433,41.6751958 103.417818,37.8631854 103.417818,34.8898172 C103.417818,33.4412533 102.771094,31.6114883 101.059177,31.6114883 C98.6244513,31.6114883 100.830922,36.9101828 94.3636807,36.9101828 C91.6626565,36.9101828 91.2061453,35.5759791 91.2061453,32.8313316 L91.2061453,20.7091384 C91.2061453,17.1258486 94.2115103,18.8031332 94.2115103,16.5921671 L94.2100929,16.4667832 C94.2090713,16.4250175 94.207424,16.3832954 94.2049211,16.3416603 L94.1946158,16.2170594 C94.0701866,15.0573668 93.0947761,14 86.2225654,14 C84.3584783,14 78.3857909,14.1524804 78.3857909,16.935248 C78.3857909,19.108094 81.7335393,17.4308094 81.8096245,20.6328982 C81.8857096,22.767624 82.0759226,24.9023499 82.0759226,27.1895561 C82.0759226,29.4386423 82.0759226,31.878329 81.9998374,34.6610966 C81.8857096,39.0830287 78.9183873,37.1007833 78.9183873,39.4642298 C78.9183873,41.0424021 80.4899268,41.1384648 81.6916924,41.1418956 L81.9518756,41.1416979 C81.993962,41.1415991 82.0353438,41.1415144 82.0759226,41.1415144 L94.7821492,41.1415144 C96.0755975,41.1415144 96.9125345,41.2558747 97.6353438,41.4083551 C98.3201106,41.5227154 98.8527069,41.6751958 99.5374736,41.6751958 Z M107.222078,20.556658 C109.390506,20.556658 114.564298,19.7942559 114.564298,16.8208877 C114.564298,14.9148825 112.395871,14.4193211 110.874167,14.4193211 C108.933994,14.4193211 103.912372,15.448564 103.912372,17.9644909 C103.912372,19.832376 105.624289,20.556658 107.222078,20.556658 Z M116.999025,38.9686684 C116.999025,36.9483029 114.754511,38.5874674 114.754511,34.089295 L114.754511,23.4537859 L114.752768,23.2342874 C114.738477,22.5010983 114.612716,21.7765013 113.575191,21.7765013 C113.194765,21.7765013 103.531946,22.9201044 103.531946,25.6266319 C103.531946,27.3420366 105.472118,26.9227154 105.814502,28.2569191 C106.23297,29.6673629 106.156885,35.1947781 105.662331,36.5289817 C105.20582,37.710705 103.646074,37.7869452 103.646074,39.1592689 C103.646074,40.0741514 103.912372,41.5608355 110.455698,41.5608355 L110.846848,41.5600139 C112.803984,41.5487851 116.999025,41.3840968 116.999025,38.9686684 Z M130.047635,39.2736292 C130.047635,37.8250653 128.754186,38.473107 128.754186,34.7754569 L128.754186,31.8402089 C128.754186,30.1248042 128.525931,27.494517 130.960657,27.494517 C134.536661,27.494517 133.471468,33.5937337 133.281255,36.3002611 C133.091042,38.7780679 131.835636,38.1300261 131.835636,39.5023499 C131.835636,41.4591819 134.904406,41.5581883 136.470757,41.5611002 L136.737975,41.5611002 C136.779413,41.5608943 136.819216,41.5608355 136.857259,41.5608355 C143.651666,41.5608355 143.854053,40.115893 143.857306,39.3831007 L143.857306,39.2736292 L143.857306,39.2736292 C143.857306,37.6344648 142.29735,38.3206266 142.107137,35.3091384 C142.09269,35.0891033 142.080713,34.8662647 142.070606,34.6411528 L142.052709,34.1880549 C142.04483,33.9601475 142.038424,33.7303202 142.032892,33.4991033 L142.022817,33.0349739 C142.016641,32.7245285 142.011311,32.4122412 142.005409,32.0993687 L141.990568,31.3949484 C141.873444,26.5427787 141.363621,21.7765013 135.183385,21.7765013 C133.014957,21.7765013 131.873679,22.5770235 131.112827,23.3394256 C130.351975,24.1399478 130.009592,24.94047 129.40091,24.94047 C128.830272,24.94047 128.640059,24.4067885 128.640059,23.9493473 C128.640059,23.7206266 128.678101,23.491906 128.678101,23.2631854 C128.678101,22.5007833 128.145505,21.7765013 127.308568,21.7765013 C126.547716,21.7765013 117.797919,23.6825065 117.797919,25.7028721 C117.797919,27.7232376 120.118517,26.8083551 120.042432,29.6292428 L119.890262,35.3472585 C119.776134,39.0830287 118.026175,37.4438642 118.026175,39.2736292 C118.026175,41.4404562 121.508811,41.5544998 123.169263,41.560502 L123.428223,41.5608355 L123.428223,41.5608355 L123.542614,41.5611002 L123.542614,41.5611002 L123.802882,41.5611002 C125.669341,41.5595985 130.047635,41.4721841 130.047635,39.2736292 Z M153.748171,41.6751958 C155.422045,41.6751958 156.601366,41.1033943 157.476345,40.5697128 C158.351325,39.9979112 158.921964,39.4642298 159.264347,39.4642298 C160.519753,39.4642298 159.150219,41.5608355 161.090392,41.5608355 C161.50886,41.5608355 169.840189,41.370235 169.840189,38.473107 C169.840189,36.4908616 167.823931,37.367624 167.823931,34.6992167 L167.823931,16.4778068 C167.823931,15.2198433 167.557633,14.4193211 166.416355,14.4193211 C166.302227,14.4193211 156.601366,15.1436031 156.601366,17.9644909 C156.601366,20.0229765 159.378475,18.7650131 159.378475,21.1284595 C159.378475,21.5477807 159.340432,22.8057441 158.769794,22.8057441 C158.351325,22.8057441 156.867664,21.662141 154.242725,21.662141 C148.992847,21.662141 144.884246,26.6177546 144.884246,31.6877285 C144.884246,36.3765013 148.764591,41.6751958 153.748171,41.6751958 Z M157.019834,36.9101828 C154.661193,36.9101828 154.204682,33.7843342 154.204682,31.9926893 C154.204682,30.2010444 154.661193,25.8172324 157.210047,25.8172324 C159.416518,25.8172324 159.416518,29.0574413 159.416518,30.5441253 L159.417218,30.7969348 C159.417404,30.8420688 159.4176,30.8886379 159.417771,30.9365452 L159.417655,31.4012257 C159.406395,33.4386143 159.213034,36.9101828 157.019834,36.9101828 Z M186.616973,41.6751958 C189.394082,41.6751958 192.361405,39.3117493 192.361405,37.1389034 C192.361405,36.3420702 192.019378,36.4020469 191.600119,36.3857399 L191.493848,36.3795339 C190.84841,36.3262827 190.078849,35.9264381 190.078849,32.0308094 L190.078849,28.218799 C190.078849,22.5007833 184.144204,21.662141 181.975776,21.662141 C178.36173,21.662141 171.932531,23.7587467 171.932531,26.9989556 C171.932531,28.218799 172.845554,29.0955614 174.062917,29.0955614 C177.448708,29.0955614 177.676963,24.9785901 179.959519,24.9785901 C181.709478,24.9785901 181.747521,27.6088773 181.747521,28.8668407 C181.747521,30.067624 181.339752,30.1593505 180.447757,30.1635199 L180.179659,30.1632111 C180.132758,30.1630566 180.084742,30.1629243 180.035604,30.1629243 C173.340107,30.1629243 170.753211,33.5174935 170.753211,36.2240209 C170.753211,39.9979112 173.910746,41.6751958 177.068282,41.6751958 C178.818241,41.6751958 179.959519,41.1796345 180.796456,40.6840731 C181.633393,40.2266319 182.127947,39.7310705 182.584458,39.7310705 C183.535523,39.7310705 183.611608,41.6751958 186.616973,41.6751958 Z M180.301902,37.4438642 C179.198667,37.4438642 178.666071,36.3765013 178.666071,35.3853786 C178.666071,34.1655352 179.54105,32.9456919 180.834498,32.9456919 C181.802855,32.9456919 181.859448,33.7332974 181.861734,34.5065827 L181.861649,34.7373368 L181.861649,34.7373368 C181.861649,35.8809399 181.747521,37.4438642 180.301902,37.4438642 Z M211.953341,41.5608355 C219.60509,41.5608355 220.477441,40.0681569 220.576412,39.0979619 L220.584044,39.0011777 C220.588573,38.9221559 220.58901,38.8473772 220.58901,38.7780679 C220.58901,36.4146214 217.887986,37.6344648 217.203219,35.3472585 C216.936921,34.3561358 216.822793,33.0219321 216.822793,31.9545692 C216.822793,29.4386423 217.203219,29.4767624 219.447732,29.4767624 C219.980328,29.4767624 220.398797,29.4005222 220.43684,28.8287206 L220.627053,26.045953 C220.685384,25.1691906 219.424442,25.2110804 218.112815,25.2783638 L217.770335,25.2959047 C217.485368,25.3100232 217.203219,25.321671 216.936921,25.321671 C216.556495,25.321671 216.518452,25.2073107 216.404325,24.9023499 C215.719558,23.2250653 211.763128,22.4245431 211.763128,20.0229765 C211.763128,19.2605744 212.295724,18.6506527 213.056576,18.6506527 C215.225004,18.6506527 215.643473,22.0814621 218.953178,22.0814621 C220.550967,22.0814621 221.844416,20.7472585 221.844416,19.1462141 C221.844416,17.5070496 220.398797,14.2287206 214.197854,14.2287206 C210.393595,14.2287206 205.714355,15.7535248 205.714355,20.2898172 C205.714355,22.6913838 207.159974,24.1018277 207.159974,24.8261097 C207.159974,25.4741514 206.551292,25.5122715 206.094781,25.5503916 C204.953503,25.6266319 205.181759,25.9697128 205.181759,28.981201 C205.181759,29.6673629 206.361079,29.4767624 206.817591,29.4767624 C208.034954,29.4767624 208.41538,30.0866841 208.339294,31.2684073 L208.034954,35.3853786 C207.882783,37.710705 205.219802,36.7195822 205.219802,38.8543081 C205.219802,41.4014242 209.6913,41.5519356 211.685985,41.5603558 L211.953341,41.5608355 L211.953341,41.5608355 Z M229.148594,41.5610275 C233.333279,41.5610275 236.681027,41.370235 236.681027,38.9686684 C236.681027,37.8250653 235.958218,37.5105744 235.206877,37.2723238 L234.906464,37.1793051 C234.259405,36.9788413 233.660445,36.7602437 233.561535,36.0334204 C233.371322,34.5848564 233.257194,32.983812 233.257194,31.8402089 C233.257194,31.154047 233.066981,28.6 234.132174,28.6 C235.121281,28.6 235.806048,30.772846 238.278816,30.772846 C240.789628,30.772846 242.958056,28.7524804 242.958056,26.1984334 C242.958056,23.6825065 241.284181,21.7765013 238.735328,21.7765013 C235.463664,21.7765013 234.893026,24.7879896 233.980003,24.7879896 C233.333279,24.7879896 233.371322,23.9112272 233.333279,23.4537859 C233.181109,22.1577023 233.143066,21.7765013 231.697448,21.7765013 C231.355064,21.7765013 222.453097,22.6151436 222.453097,25.6266319 C222.453097,27.9519582 224.811738,25.8553525 224.811738,29.5911227 L224.811738,31.878329 C224.811738,32.9456919 224.69761,35.1185379 224.393269,36.0715405 C223.974801,37.4057441 222.224841,37.4057441 222.224841,39.0067885 C222.224841,41.4617232 226.73179,41.5589719 228.755498,41.5610275 L229.026952,41.5610275 C229.069127,41.5610275 229.109706,41.5610275 229.148594,41.5610275 Z M254.332791,41.6751958 C259.925053,41.6751958 266.62055,37.8631854 266.62055,31.6114883 C266.62055,26.8845953 262.81629,21.662141 256.158836,21.662141 C249.881808,21.662141 243.90912,25.5122715 243.90912,32.3357702 C243.90912,38.3587467 248.702487,41.6751958 254.332791,41.6751958 Z M256.120793,36.8720627 C253.495854,36.7195822 252.811088,30.8490862 252.658917,28.4475196 C252.582832,27.3420366 253.267599,26.1603133 254.523004,26.1603133 C257.109901,26.1603133 257.870753,32.7932115 257.870753,34.5086162 C257.870753,35.7284595 257.566412,36.9483029 256.120793,36.8720627 Z M273.65843,41.5608859 C278.870265,41.5608859 279.745245,40.2266319 279.745245,39.2355091 C279.745245,37.8631854 278.718095,38.091906 278.718095,34.5848564 L278.718095,31.4971279 C278.718095,30.0866841 278.527882,27.494517 280.658267,27.494517 C282.766461,27.494517 282.645229,30.7373731 282.636868,32.1786425 L282.636482,34.4704961 C282.75061,39.0067885 280.84848,37.4057441 280.810437,39.4261097 C280.772395,40.4934726 281.076735,41.5608859 286.821167,41.5608859 L287.049594,41.5602637 C288.635799,41.5512102 292.755812,41.4045431 292.755812,39.1592689 C292.755812,37.7488251 291.386279,38.5493473 291.386279,33.8605744 L291.386279,31.4971279 C291.386279,30.0866841 291.196066,27.494517 293.326451,27.494517 C295.434645,27.494517 295.313413,30.5211827 295.305052,32.1606266 L295.304666,35.7284595 C295.304666,37.9394256 293.973175,37.9013055 293.973175,39.3117493 C293.973175,41.2404206 298.150802,41.5451587 299.532962,41.5602222 L299.641522,41.5608859 C301.125183,41.5608859 305.462039,41.4464752 305.462039,39.0449086 C305.462039,37.9394256 304.054463,37.7488251 304.054463,35.537859 L304.054463,27.494517 C304.054463,23.7587467 301.80995,21.7765013 298.195903,21.7765013 C296.255731,21.7765013 294.734027,22.6151436 293.592749,23.4537859 C292.489514,24.3305483 291.804747,25.1691906 291.500406,25.1691906 C290.701512,25.1691906 290.663469,21.7765013 286.136401,21.7765013 C283.891887,21.7765013 282.370184,22.6151436 281.304991,23.4537859 C280.239798,24.3305483 279.631117,25.1691906 279.250691,25.1691906 C278.451796,25.1691906 278.603967,23.873107 278.603967,23.4156658 C278.603967,22.6151436 278.527882,21.7765013 277.576817,21.7765013 C277.500732,21.7765013 268.066168,22.8438642 268.066168,25.664752 C268.066168,26.6558747 268.598764,26.6177546 269.093318,27.0370757 C269.473744,27.3801567 269.968298,28.0663185 269.968298,30.5060052 L269.968298,34.0130548 C269.968298,38.7780679 267.685742,37.8631854 267.685742,39.5785901 C267.685742,41.5989556 272.174768,41.5608859 273.65843,41.5608859 Z M90.1789953,77.0887728 C90.1789953,74.8778068 87.4018859,76.8600522 87.2877581,72.0950392 L87.2877581,69.8840731 C87.2877581,69.464752 87.4399285,69.2741514 87.8964396,69.2741514 C88.9235897,69.2741514 90.0648675,69.464752 91.2061453,69.464752 C96.494066,69.464752 101.287433,66.4151436 101.287433,60.735248 C101.287433,55.0172324 96.303853,52.0057441 91.1300602,52.0057441 C89.5322712,52.0057441 86.1845228,52.5394256 80.6683466,52.5394256 C79.7172817,52.5394256 78.8042595,52.4631854 77.8531946,52.4631854 C76.6738742,52.4631854 75,52.8062663 75,54.3310705 C75,56.7326371 78.5379613,55.4746736 78.5379613,58.3336815 L78.5379613,73.2386423 C78.5379613,76.3644909 75.7608519,75.0684073 75.7608519,77.1650131 C75.7608519,79.5326951 80.901806,79.6727324 82.7528583,79.6805032 L83.2387072,79.6800648 C85.1769859,79.6661061 90.1789953,79.4564549 90.1789953,77.0887728 Z M88.9996748,65.1190601 C86.9453747,65.1190601 87.2877581,64.2422977 87.2877581,63.4417755 L87.2877581,57.7237598 C87.2877581,56.9613577 87.2497155,56.5039164 88.7333767,56.5039164 C91.2822305,56.5039164 92.4995936,58.4861619 92.4995936,60.8877285 C92.4995936,63.2130548 91.5104861,65.1190601 88.9996748,65.1190601 Z M128.525931,76.3644909 C128.525931,75.5803059 128.141623,75.3282464 127.702414,75.1161964 L127.479759,75.0112272 C126.956674,74.7634465 126.433588,74.4584856 126.433588,73.3148825 L126.433588,65.6527415 C126.433588,64.4328982 126.509673,63.2511749 126.509673,62.0313316 C126.509673,60.6971279 125.939034,59.8966057 124.569501,59.8966057 C123.123882,59.8966057 115.477321,60.2778068 115.477321,62.526893 C115.477321,64.1279373 117.341408,63.4798956 117.645749,65.3859008 C117.835962,66.6057441 117.797919,68.2449086 117.797919,69.5028721 C117.797919,69.8513987 117.811721,70.2635453 117.815139,70.7024308 L117.815377,71.0360321 C117.802232,72.8358312 117.526186,74.9159269 115.439278,74.9159269 C113.449175,74.9159269 113.279878,72.6978878 113.27124,71.1729859 L113.27085,61.3451697 C113.27085,60.3921671 113.156722,59.8966057 112.09153,59.8966057 C111.787189,59.8966057 102.200455,60.0109661 102.200455,62.4506527 C102.200455,64.9665796 104.825394,62.4125326 104.825394,68.2449086 L104.822771,68.9692961 L104.822771,68.9692961 L104.819288,69.4509431 C104.816818,69.7714872 104.814303,70.0907532 104.813255,70.4077187 L104.81297,70.8813137 C104.813567,71.1171207 104.815412,71.351346 104.819144,71.5835584 L104.829313,72.0451713 C104.949038,76.2496768 105.845579,79.6809399 111.444806,79.6809399 C113.11868,79.6809399 114.336043,79.1091384 115.249065,78.5373368 C116.162087,77.9655352 116.770769,77.3937337 117.189238,77.3937337 C118.710941,77.3937337 116.770769,79.6809399 119.700049,79.6809399 C121.792391,79.6809399 128.525931,78.956658 128.525931,76.3644909 Z M136.210535,79.681132 C140.39522,79.681132 143.742969,79.4903394 143.742969,77.0887728 C143.742969,75.9451697 143.020159,75.6306789 142.268818,75.3924282 L141.968406,75.2994095 C141.321346,75.0989457 140.722387,74.8803481 140.623476,74.1535248 C140.433263,72.7049608 140.319135,71.1039164 140.319135,69.9603133 C140.319135,69.2741514 140.128922,66.7201044 141.194115,66.7201044 C142.183222,66.7201044 142.867989,68.8929504 145.340758,68.8929504 C147.851569,68.8929504 150.019997,66.8725849 150.019997,64.3185379 C150.019997,61.802611 148.346123,59.8966057 145.797269,59.8966057 C142.525606,59.8966057 141.954967,62.908094 141.041944,62.908094 C140.39522,62.908094 140.433263,62.0313316 140.39522,61.5738903 C140.24305,60.2778068 140.205007,59.8966057 138.759389,59.8966057 C138.417005,59.8966057 129.515038,60.735248 129.515038,63.7467363 C129.515038,66.0720627 131.873679,63.9754569 131.873679,67.7112272 L131.873679,69.9984334 C131.873679,71.0657963 131.759551,73.2386423 131.455211,74.1916449 C131.036742,75.5258486 129.286783,75.5258486 129.286783,77.126893 C129.286783,79.5818277 133.793731,79.6790763 135.817439,79.681132 L136.088893,79.681132 C136.131068,79.681132 136.171647,79.681132 136.210535,79.681132 Z M161.318647,79.7953003 C166.644611,79.7953003 170.068444,76.8981723 170.068444,74.6490862 C170.068444,73.7342037 169.383677,72.5906005 168.356527,72.5906005 C167.557633,72.5906005 166.758738,73.5817232 164.362055,73.5817232 C161.35669,73.5817232 159.264347,70.7227154 159.264347,67.9018277 C159.264347,66.3770235 160.17737,64.6616188 161.851244,64.6616188 C163.217319,64.6616188 163.569448,65.6382496 163.933019,66.703665 L164.043448,67.0250653 C164.457161,68.2067885 165.008779,69.3885117 167.063079,69.3885117 C169.193464,69.3885117 170.791253,67.7493473 170.791253,65.6146214 C170.791253,62.9462141 167.785888,59.7822454 162.079499,59.7822454 C155.688343,59.7822454 150.933019,64.2422977 150.933019,69.7315927 C150.933019,75.5639687 155.574216,79.7953003 161.318647,79.7953003 Z M198.067794,77.508094 C198.067794,76.0214099 196.203707,76.8219321 196.203707,73.5817232 L196.051536,67.4443864 C196.050366,67.4115445 196.049699,67.3734695 196.049304,67.3305146 L196.048558,67.1054697 C196.045233,65.4014646 195.969598,59.7822454 189.50821,59.7822454 C185.247439,59.7822454 184.752886,63.1749347 183.611608,63.1749347 C182.6225,63.1749347 182.660543,61.9550914 182.698586,61.2308094 L182.926841,53.9879896 C182.926841,52.8825065 182.850756,52.5394256 181.709478,52.5394256 C181.671436,52.5394256 171.780361,53.3399478 171.780361,56.3895561 C171.780361,58.181201 174.062917,57.2281984 174.139002,59.9347258 C174.177044,61.6501305 174.291172,63.4036554 174.291172,65.1190601 L174.290471,65.9525578 C174.285094,68.3337239 174.238498,72.4542478 173.834661,74.0391645 C173.187937,76.5169713 171.704276,75.8308094 171.704276,77.3556136 C171.704276,78.5373368 172.959681,79.6809823 178.399772,79.6809823 L178.644011,79.6803513 C180.278791,79.6713159 184.182247,79.529437 184.182247,77.4318538 C184.182247,76.05953 182.660543,76.7075718 182.660543,73.5436031 L182.660514,68.6489073 L182.660514,68.6489073 L182.663904,68.3313872 C182.692507,66.851092 182.936064,65.4240209 184.905056,65.4240209 C187.474323,65.4240209 187.634075,68.666248 187.643547,70.6230255 L187.644123,70.9133159 L187.644123,70.9133159 C187.644123,72.1712794 187.60608,73.505483 187.377825,74.7253264 C187.073484,76.6694517 186.008291,76.6313316 186.008291,77.7368146 C186.008291,79.5274564 189.913322,79.6688228 191.451384,79.6799833 L191.790766,79.6809823 L191.790766,79.6809823 C193.198342,79.6809823 198.067794,79.7190601 198.067794,77.508094 Z M214.844578,79.7953003 C217.621688,79.7953003 220.58901,77.4318538 220.58901,75.2590078 C220.58901,74.4621747 220.246983,74.5221514 219.827724,74.5058443 L219.721453,74.4996384 C219.076015,74.4463872 218.306454,74.0465426 218.306454,70.1509138 L218.306454,66.3389034 C218.306454,60.6208877 212.371809,59.7822454 210.203382,59.7822454 C206.589335,59.7822454 200.160137,61.8788512 200.160137,65.1190601 C200.160137,66.3389034 201.073159,67.2156658 202.290522,67.2156658 C205.676313,67.2156658 205.904568,63.0986945 208.187124,63.0986945 C209.937083,63.0986945 209.975126,65.7289817 209.975126,66.9869452 C209.975126,68.1877285 209.567357,68.279455 208.675362,68.2836243 L208.407264,68.2833155 C208.360363,68.2831611 208.312348,68.2830287 208.263209,68.2830287 C201.567713,68.2830287 198.980816,71.6375979 198.980816,74.3441253 C198.980816,78.1180157 202.138351,79.7953003 205.295887,79.7953003 C207.045846,79.7953003 208.187124,79.2997389 209.024061,78.8041775 C209.860998,78.3467363 210.355552,77.8511749 210.812063,77.8511749 C211.763128,77.8511749 211.839213,79.7953003 214.844578,79.7953003 Z M208.529507,75.5639687 C207.426272,75.5639687 206.893676,74.4966057 206.893676,73.505483 C206.893676,72.2856397 207.768656,71.0657963 209.062104,71.0657963 C210.030461,71.0657963 210.087053,71.8534018 210.08934,72.6266872 L210.089254,72.8574413 L210.089254,72.8574413 C210.089254,74.0010444 209.975126,75.5639687 208.529507,75.5639687 Z M232.800683,83.3785901 C234.604638,83.3785901 234.769714,83.4142905 234.778487,81.7237033 L234.778898,81.5488251 C234.778898,80.6339426 234.66477,80.3289817 235.577792,80.2527415 C238.354902,80.0240209 243.75695,77.3556136 243.75695,72.3618799 C243.75695,63.5942559 232.153959,65.7671018 232.153959,62.1075718 C232.153959,60.8877285 233.105024,60.354047 234.208259,60.354047 C237.708178,60.354047 239.191839,64.2041775 241.246139,64.2041775 C242.539587,64.2041775 243.262396,63.1749347 243.262396,61.9169713 C243.262396,59.5535248 241.017883,56.6182768 239.610307,56.6182768 C238.925541,56.6182768 238.354902,56.9994778 237.898391,56.9994778 C237.790976,56.9994778 237.312877,56.8897341 236.785221,56.7655897 L236.385204,56.6712709 C235.919386,56.5615583 235.477091,56.4590693 235.273451,56.4276762 C234.588685,56.2751958 234.778898,55.5127937 234.778898,54.9791123 C234.778898,53.0977007 234.386992,53.2869128 232.741216,53.3010778 L232.078924,53.3015513 C230.68732,53.3056357 230.594212,53.4100396 230.594212,55.1315927 C230.594212,56.1608355 230.70834,56.2751958 229.719233,56.4657963 C226.105186,57.1900783 223.023736,60.2396867 223.023736,64.0516971 C223.023736,68.1686684 226.637782,70.570235 230.099659,71.7900783 C234.208259,73.2767624 234.550642,73.505483 234.550642,74.6490862 C234.550642,75.9070496 232.61047,76.2882507 231.773533,76.2882507 C225.876931,76.2882507 226.409527,70.951436 223.784588,70.951436 C222.79548,70.951436 222.415054,71.8663185 222.415054,72.7430809 C222.415054,74.2678851 223.175906,77.6605744 224.507397,78.6516971 C225.610632,79.4522193 228.577955,80.1002611 230.023573,80.2908616 C230.605401,80.349163 230.63107,80.786423 230.610938,81.26171 L230.595955,81.5926403 C230.59487,81.6291543 230.594212,81.6654277 230.594212,81.7013055 C230.594212,83.6454308 231.050723,83.3785901 232.800683,83.3785901 Z M249.158999,58.6767624 C251.327426,58.6767624 256.501219,57.9143603 256.501219,54.9409922 C256.501219,53.0349869 254.332791,52.5394256 252.811088,52.5394256 C250.870915,52.5394256 245.849293,53.5686684 245.849293,56.0845953 C245.849293,57.9524804 247.56121,58.6767624 249.158999,58.6767624 Z M258.935945,77.0887728 C258.935945,75.0684073 256.691432,76.7075718 256.691432,72.2093995 L256.691432,61.5738903 C256.691432,60.7733681 256.65339,59.8966057 255.512112,59.8966057 C255.131686,59.8966057 245.468867,61.0402089 245.468867,63.7467363 C245.468867,65.462141 247.409039,65.0428198 247.751423,66.3770235 C248.169891,67.7874674 248.093806,73.3148825 247.599252,74.6490862 C247.142741,75.8308094 245.582995,75.9070496 245.582995,77.2793734 C245.582995,78.1942559 245.849293,79.6809399 252.392619,79.6809399 L252.783769,79.6801183 C254.740904,79.6688896 258.935945,79.5042013 258.935945,77.0887728 Z M271.984555,77.3937337 C271.984555,75.9451697 270.691107,76.5932115 270.691107,72.8955614 L270.691107,69.9603133 C270.691107,68.2449086 270.462852,65.6146214 272.897578,65.6146214 C276.473582,65.6146214 275.408389,71.7138381 275.218176,74.4203655 C275.027963,76.8981723 273.772557,76.2501305 273.772557,77.6224543 C273.772557,79.5792863 276.841327,79.6782927 278.407678,79.6812047 L278.674896,79.6812047 C278.716333,79.6809988 278.756137,79.6809399 278.79418,79.6809399 C285.588587,79.6809399 285.790974,78.2359974 285.794226,77.5032051 L285.794226,77.4287925 C285.794226,77.4168599 285.794226,77.4051697 285.794226,77.3937337 C285.794226,75.7545692 284.234271,76.4407311 284.044058,73.4292428 C284.029611,73.2092078 284.017633,72.9863692 284.007526,72.7612572 L283.98963,72.3081593 C283.981751,72.0802519 283.975345,71.8504246 283.969813,71.6192078 L283.959738,71.1550783 C283.953562,70.844633 283.948232,70.5323456 283.94233,70.2194731 L283.927489,69.5150528 C283.810365,64.6628832 283.300542,59.8966057 277.120306,59.8966057 C274.951878,59.8966057 273.8106,60.6971279 273.049748,61.45953 C272.288896,62.2600522 271.946513,63.0605744 271.337831,63.0605744 C270.767192,63.0605744 270.576979,62.526893 270.576979,62.0694517 C270.576979,61.8407311 270.615022,61.6120104 270.615022,61.3832898 C270.615022,60.6208877 270.082426,59.8966057 269.245489,59.8966057 C268.484637,59.8966057 259.73484,61.802611 259.73484,63.8229765 C259.73484,65.843342 262.055438,64.9284595 261.979353,67.7493473 L261.827183,73.4673629 C261.713055,77.2031332 259.963095,75.5639687 259.963095,77.3937337 C259.963095,79.5605607 263.445732,79.6746042 265.106184,79.6806065 L265.365144,79.6809399 L265.365144,79.6809399 L265.479534,79.6812047 L265.479534,79.6812047 L265.739803,79.6812047 C267.606262,79.679703 271.984555,79.5922885 271.984555,77.3937337 Z M296.407901,87 C305.728337,87 309,82.3874674 309,78.956658 C309,76.6694517 307.326126,74.4203655 303.369696,74.4203655 C301.847992,74.4203655 297.435051,75.0684073 296.255731,75.0684073 C295.380751,75.0684073 293.706877,74.8396867 293.706877,73.6579634 C293.706877,73.0480418 294.087303,72.6287206 294.734027,72.6287206 C295.418794,72.6287206 296.065518,72.7430809 296.712242,72.7430809 C300.896927,72.7430809 306.869615,70.9895561 306.869615,65.843342 C306.869615,65.462141 306.755487,65.0428198 306.755487,64.6616188 C306.755487,64.2422977 308.885872,62.7174935 308.885872,60.5827676 C308.885872,59.8584856 308.505446,58.7148825 307.630467,58.7148825 C307.059828,58.7148825 305.614209,60.735248 302.722972,60.735248 C301.391481,60.735248 298.766542,60.0109661 296.82637,60.0109661 C292.984068,60.0109661 287.239636,62.1456919 287.239636,66.7582245 C287.239636,69.5791123 289.826532,71.3326371 289.826532,71.7900783 C289.826532,72.3237598 286.745082,73.124282 286.745082,75.8308094 C286.745082,77.508094 288.799382,78.5754569 288.799382,79.0710183 C288.799382,79.6428198 286.70704,79.6809399 286.70704,81.891906 C286.70704,84.3315927 289.370021,87 296.407901,87 Z M297.206796,70.1509138 C295.266623,70.1509138 294.886197,66.9869452 294.886197,65.5383812 C294.886197,64.2041775 295.532921,62.7937337 297.016583,62.7937337 C299.146968,62.7937337 299.489351,65.6146214 299.489351,67.1775457 C299.489351,68.6642298 298.918712,70.1509138 297.206796,70.1509138 Z M296.788327,83.721671 C295.304666,83.721671 292.337344,83.1879896 292.337344,81.167624 C292.337344,80.9007833 292.451471,80.5577023 292.793855,80.5577023 C293.212323,80.5577023 295.266623,80.8626632 296.141603,80.8626632 C297.358966,80.8626632 298.842627,80.6339426 299.413266,80.6339426 C300.136075,80.6339426 300.896927,80.9770235 300.896927,81.7775457 C300.896927,83.5310705 298.043733,83.721671 296.788327,83.721671 Z" id="LindafromPurcha$ing" fill="#000000" fill-rule="nonzero"></path>
        <path d="M6.264,68.0449877 C6.632,68.0449877 7.064,67.8209877 7.592,66.8129877 L10.216,61.7089877 C10.68,60.8129877 11.72,61.1649877 11.72,60.3969877 C11.72,59.6929877 10.52,59.6929877 10.056,59.6929877 L9.89563937,59.6920981 C9.27054545,59.6884918 7.816,59.701715 7.816,60.4289877 C7.816,60.8929877 8.36,61.0529877 8.36,61.4529877 C8.36,61.7729877 7.8,63.1329877 7.256,63.1329877 C6.856,63.1329877 6.264,61.9329877 6.264,61.5649877 C6.264,61.1489877 6.872,61.0369877 6.872,60.5089877 C6.872,59.7316543 5.07044444,59.6937655 4.33884259,59.6928488 L4.168,59.6929877 L4.168,59.6929877 C1.16,59.6929877 0.952,60.2529877 0.952,60.6529877 C0.952,61.5169877 1.848,61.0209877 2.312,61.9009877 L4.984,66.8769877 C5.24,67.3569877 5.64,68.0449877 6.264,68.0449877 Z M16.248,68.0449877 C17.688,68.0449877 19.944,67.1489877 19.944,65.9169877 C19.944,65.6129877 19.656,65.1169877 19.32,65.1169877 C18.984,65.1169877 18.392,65.8369877 17.192,65.8369877 C16.44,65.8369877 15.4,65.1649877 15.4,64.3649877 C15.4,64.0929877 15.656,64.1409877 15.832,64.1409877 L19.304,64.1409877 C19.816,64.1409877 20.296,63.9969877 20.296,62.9409877 C20.296,61.7409877 19.096,59.6449877 16.376,59.6449877 C13.976,59.6449877 11.88,61.4369877 11.88,63.9009877 C11.88,65.9649877 13.368,68.0449877 16.248,68.0449877 Z M15.32,62.1569877 C15.32,61.6449877 15.752,61.1009877 16.28,61.1009877 C16.872,61.1009877 17.224,61.5489877 17.224,62.1249877 C17.224,62.6241877 16.8394311,62.618641 16.4556634,62.6082872 L16.28,62.6049877 L16.28,62.6049877 C15.864,62.6049877 15.32,62.7329877 15.32,62.1569877 Z M23.592,67.9969877 C25.352,67.9969877 26.76,67.9169877 26.76,66.9089877 C26.76,65.9489877 25.544,66.3809877 25.448,65.6769877 C25.368,65.0689877 25.32,64.3969877 25.32,63.9169877 C25.32,63.6289877 25.24,62.5569877 25.688,62.5569877 C26.104,62.5569877 26.392,63.4689877 27.432,63.4689877 C28.488,63.4689877 29.4,62.6209877 29.4,61.5489877 C29.4,60.4929877 28.696,59.6929877 27.624,59.6929877 C26.248,59.6929877 26.008,60.9569877 25.624,60.9569877 C25.352,60.9569877 25.368,60.5889877 25.352,60.3969877 C25.288,59.8529877 25.272,59.6929877 24.664,59.6929877 C24.52,59.6929877 20.776,60.0449877 20.776,61.3089877 C20.776,62.2849877 21.768,61.4049877 21.768,62.9729877 L21.768,63.9329877 C21.768,64.3809877 21.72,65.2929877 21.592,65.6929877 C21.416,66.2529877 20.68,66.2529877 20.68,66.9249877 C20.68,68.0289877 22.856,67.9969877 23.592,67.9969877 Z M34.04,68.0449877 C35.704,68.0449877 37.16,67.0049877 37.16,65.5009877 C37.16,63.0209877 33.64,62.8289877 33.64,61.8049877 C33.64,61.5009877 33.928,61.2609877 34.216,61.2609877 C34.92,61.2609877 35.432,62.5249877 36.344,62.5249877 C36.76,62.5249877 37.128,62.2049877 37.128,61.7729877 C37.128,61.1169877 36.392,59.6449877 35.656,59.6449877 C35.512,59.6449877 35.368,59.6929877 35.224,59.7409877 C35.08,59.8049877 34.952,59.8529877 34.792,59.8529877 C34.68,59.8529877 34.424,59.7889877 34.136,59.7409877 C33.832,59.6769877 33.496,59.6449877 33.176,59.6449877 C31.528,59.6449877 30.216,60.6529877 30.216,62.2529877 C30.216,64.8929877 33.352,65.0049877 33.352,65.9489877 C33.352,66.3009877 33.048,66.4609877 32.728,66.4609877 C31.832,66.4609877 31.192,64.8769877 30.488,64.8769877 C30.024,64.8769877 29.88,65.2129877 29.88,65.6289877 C29.88,66.2369877 30.28,67.1489877 30.68,67.5969877 C30.904,67.8529877 31.064,67.9009877 31.384,67.9009877 C31.496,67.9009877 31.592,67.8849877 31.688,67.8689877 C31.8,67.8529877 31.896,67.8369877 32.008,67.8369877 C32.104,67.8369877 32.456,67.8849877 32.856,67.9329877 C33.256,67.9969877 33.72,68.0449877 34.04,68.0449877 Z M39.24,59.1809877 C40.152,59.1809877 42.328,58.8609877 42.328,57.6129877 C42.328,56.8129877 41.416,56.6049877 40.776,56.6049877 C39.96,56.6049877 37.848,57.0369877 37.848,58.0929877 C37.848,58.8769877 38.568,59.1809877 39.24,59.1809877 Z M43.352,66.9089877 C43.352,66.0609877 42.408,66.7489877 42.408,64.8609877 L42.408,60.3969877 C42.408,60.0609877 42.392,59.6929877 41.912,59.6929877 C41.752,59.6929877 37.688,60.1729877 37.688,61.3089877 C37.688,61.6449877 37.8657067,61.7858588 38.0698951,61.8974606 L38.247872,61.9898197 C38.42528,62.0827477 38.5904,62.1889877 38.648,62.4129877 C38.824,63.0049877 38.792,65.3249877 38.584,65.8849877 C38.392,66.3809877 37.736,66.4129877 37.736,66.9889877 C37.736,67.3729877 37.848,67.9969877 40.6,67.9969877 L40.7962783,67.9964306 C41.6321152,67.9900245 43.352,67.9099477 43.352,66.9089877 Z M48.2,68.0449877 C50.552,68.0449877 53.368,66.4449877 53.368,63.8209877 C53.368,61.8369877 51.768,59.6449877 48.968,59.6449877 C46.328,59.6449877 43.816,61.2609877 43.816,64.1249877 C43.816,66.6529877 45.832,68.0449877 48.2,68.0449877 Z M48.952,66.0289877 C47.848,65.9649877 47.56,63.5009877 47.496,62.4929877 C47.464,62.0289877 47.752,61.5329877 48.28,61.5329877 C49.368,61.5329877 49.688,64.3169877 49.688,65.0369877 C49.688,65.5489877 49.56,66.0609877 48.952,66.0289877 Z M58.968,67.0369877 C58.968,66.4289877 58.424,66.7009877 58.424,65.1489877 L58.424,63.9169877 C58.424,63.1969877 58.328,62.0929877 59.352,62.0929877 C60.856,62.0929877 60.408,64.6529877 60.328,65.7889877 C60.248,66.8289877 59.72,66.5569877 59.72,67.1329877 C59.72,68.0289877 61.256,67.9969877 61.832,67.9969877 C64.84,67.9969877 64.7761066,67.3249877 64.7761066,67.0369877 C64.7761066,66.3489877 64.12,66.6369877 64.04,65.3729877 C64.0156522,65.0029007 64.0079773,64.6139177 64.0007938,64.2203598 L63.9943794,63.8822379 C63.9509112,61.7943639 63.792,59.6929877 61.128,59.6929877 C60.216,59.6929877 59.736,60.0289877 59.416,60.3489877 C59.096,60.6849877 58.952,61.0209877 58.696,61.0209877 C58.456,61.0209877 58.376,60.7969877 58.376,60.6049877 C58.376,60.5089877 58.392,60.4129877 58.392,60.3169877 C58.392,59.9969877 58.168,59.6929877 57.816,59.6929877 C57.496,59.6929877 53.816,60.4929877 53.816,61.3409877 C53.816,62.1889877 54.792,61.8049877 54.76,62.9889877 L54.696,65.3889877 C54.648,66.9569877 53.912,66.2689877 53.912,67.0369877 C53.912,67.9135094 55.2725142,67.9897287 55.996266,67.9963565 L56.184,67.9969877 L56.184,67.9969877 C56.84,67.9969877 58.968,68.0289877 58.968,67.0369877 Z" id="version" fill="#ED9547" fill-rule="nonzero" transform="translate(32.864053, 62.324988) rotate(-15.000000) translate(-32.864053, -62.324988) "></path>
        <path d="M22.9153788,52.2966036 C24.1953788,52.2966036 26.4993788,50.1526036 26.4993788,46.5686036 C26.4993788,45.6406036 26.2433788,44.1686036 25.0593788,44.1686036 C24.0033788,44.1686036 23.4273788,46.0886036 21.1553788,46.0886036 C20.5153788,46.0886036 19.7473788,45.7046036 19.7473788,44.9686036 C19.7473788,43.6566036 25.1233788,41.0326036 25.1233788,36.9366036 C25.1233788,34.4086036 22.8833788,31.9126036 17.4753788,31.9126036 C13.5393788,31.9126036 7.52337885,34.6966036 7.52337885,37.5126036 C7.52337885,38.4726036 8.67537885,39.3686036 9.60337885,39.3686036 C11.0753788,39.3686036 11.4593788,37.5126036 13.4113788,37.5126036 C14.5313788,37.5126036 15.2033788,38.2166036 15.2033788,39.3366036 C15.2033788,41.6086036 11.3313788,45.6086036 9.69937885,47.1446036 C7.4365217,49.2867751 7.36411027,49.4091849 7.3632236,49.8453283 L7.3632236,49.9286036 L7.3632236,49.9286036 C7.3632236,50.6966036 8.30378701,50.7592975 8.93520392,50.7615366 L9.13251825,50.7609284 C9.16292533,50.7607488 9.19195027,50.7606036 9.21937885,50.7606036 L19.7793788,50.7606036 C22.6913788,50.7606036 21.1553788,52.2966036 22.9153788,52.2966036 Z M43.0753788,52.2966036 C44.3553788,52.2966036 46.6593788,50.1526036 46.6593788,46.5686036 C46.6593788,45.6406036 46.4033788,44.1686036 45.2193788,44.1686036 C44.1633788,44.1686036 43.5873788,46.0886036 41.3153788,46.0886036 C40.6753788,46.0886036 39.9073788,45.7046036 39.9073788,44.9686036 C39.9073788,43.6566036 45.2833788,41.0326036 45.2833788,36.9366036 C45.2833788,34.4086036 43.0433788,31.9126036 37.6353788,31.9126036 C33.6993788,31.9126036 27.6833788,34.6966036 27.6833788,37.5126036 C27.6833788,38.4726036 28.8353788,39.3686036 29.7633788,39.3686036 C31.2353788,39.3686036 31.6193788,37.5126036 33.5713788,37.5126036 C34.6913788,37.5126036 35.3633788,38.2166036 35.3633788,39.3366036 C35.3633788,41.6086036 31.4913788,45.6086036 29.8593788,47.1446036 C27.4593788,49.4166036 27.5232148,49.4166036 27.5232148,49.9286036 C27.5232148,50.6966036 28.463787,50.7592975 29.0952039,50.7615366 L29.2925182,50.7609284 C29.3229253,50.7607488 29.3519503,50.7606036 29.3793788,50.7606036 L39.9393788,50.7606036 C42.8513788,50.7606036 41.3153788,52.2966036 43.0753788,52.2966036 Z" id="22" fill="#ED9547" fill-rule="nonzero" transform="translate(27.011301, 42.104604) rotate(-15.000000) translate(-27.011301, -42.104604) "></path>
    </g>
</svg>