<svg height="24" viewBox="0 0 24 24" width="24" xmlns="http://www.w3.org/2000/svg"><path d="m13.3254199 1.01518685.0872208.07770637 3.5355339 3.5355339c.3626297.3626297.3885318.9344751.0777064 1.32699275l-.0777064.08722082-3.5355339 3.5355339c-.3905243.39052429-1.0236893.39052429-1.4142136 0-.3626297-.3626297-.3885318-.93447509-.0777063-1.32699275l.0777063-.08722081 2.1438822-2.1432897c-.3039584-.01380945-.655332-.0204143-1.0725216-.02217343l-1.0697877.0015021c-3.3137085 0-6 2.6862915-6 6s2.6862915 6 6 6 6-2.6862915 6-6c0-.5522847.4477153-1 1-1s1 .4477153 1 1c0 4.418278-3.581722 8-8 8s-8-3.581722-8-8 3.581722-8 8-8l1.1081784-.00147832c.1345115.00058353.2633284.00164591.386965.00327194l-1.4967163-1.49468684c-.3626297-.3626297-.3885318-.93447509-.0777063-1.32699275l.0777063-.08722081c.3626297-.3626297.9344751-.38853182 1.3269928-.07770637z"/></svg>