<?xml version="1.0" encoding="UTF-8"?>
<svg width="199px" height="30px" viewBox="0 0 199 30" version="1.1" xmlns="http://www.w3.org/2000/svg" xmlns:xlink="http://www.w3.org/1999/xlink">
    <title>title</title>
    <g id="ðŸž-Hunting-Bugs" stroke="none" stroke-width="1" fill="none" fill-rule="evenodd">
        <path d="M21.66,28.532 C23.408,28.532 25.536,24.732 25.536,21.768 C25.536,20.324 24.89,18.5 23.18,18.5 C20.748,18.5 22.952,23.782 16.492,23.782 C13.794,23.782 13.338,22.452 13.338,19.716 L13.338,7.632 C13.338,4.06 16.34,5.732 16.34,3.528 C16.34,3.44464516 16.3384183,3.36129032 16.3334181,3.27828243 L16.3231244,3.15407418 C16.1988345,1.99803538 15.2245161,0.944 8.36,0.944 C6.498,0.944 0.532,1.096 0.532,3.87 C0.532,6.036 3.876,4.364 3.952,7.556 C4.028,9.684 4.218,11.812 4.218,14.092 C4.218,16.334 4.218,18.766 4.142,21.54 C4.028,25.948 1.064,23.972 1.064,26.328 C1.064,27.9012 2.63378,27.99696 3.8342,28.00038 L4.09409185,28.000183 C4.13613111,28.0000844 4.17746667,28 4.218,28 L16.91,28 C18.202,28 19.038,28.114 19.76,28.266 C20.444,28.38 20.976,28.532 21.66,28.532 Z M29.336,7.48 C31.502,7.48 36.67,6.72 36.67,3.756 C36.67,1.856 34.504,1.362 32.984,1.362 C31.046,1.362 26.03,2.388 26.03,4.896 C26.03,6.758 27.74,7.48 29.336,7.48 Z M39.102,25.834 C39.102,23.82 36.86,25.454 36.86,20.97 L36.86,10.368 C36.86,9.57 36.822,8.696 35.682,8.696 C35.302,8.696 25.65,9.836 25.65,12.534 C25.65,14.244 27.588,13.826 27.93,15.156 C28.348,16.562 28.272,22.072 27.778,23.402 C27.322,24.58 25.764,24.656 25.764,26.024 C25.764,26.936 26.03,28.418 32.566,28.418 L32.956712,28.417181 C34.911656,28.4059876 39.102,28.2418182 39.102,25.834 Z M52.136,26.138 C52.136,24.694 50.844,25.34 50.844,21.654 L50.844,18.728 C50.844,17.018 50.616,14.396 53.048,14.396 C56.62,14.396 55.556,20.476 55.366,23.174 C55.176,25.644 53.922,24.998 53.922,26.366 C53.922,28.3166667 56.9873333,28.4153611 58.5519306,28.4182639 L58.8188493,28.4182639 C58.8602407,28.4180586 58.9,28.418 58.938,28.418 C65.7248,28.418 65.92696,26.97761 65.930209,26.2471265 L65.930209,26.1729484 C65.930209,26.1610533 65.930209,26.1494 65.930209,26.138 C65.930209,24.504 64.372,25.188 64.182,22.186 C64.1675696,21.9666582 64.1556052,21.7445217 64.1455095,21.520119 L64.1276327,21.0684487 C64.1197632,20.8412593 64.1133642,20.6121562 64.1078385,20.3816678 L64.0977746,19.9190007 C64.0916057,19.6095334 64.0862815,19.29823 64.0803863,18.9863433 L64.0655615,18.2841424 C63.9485688,13.4472604 63.4393165,8.696 57.266,8.696 C55.1,8.696 53.96,9.494 53.2,10.254 C52.44,11.052 52.098,11.85 51.49,11.85 C50.92,11.85 50.73,11.318 50.73,10.862 C50.73,10.634 50.768,10.406 50.768,10.178 C50.768,9.418 50.236,8.696 49.4,8.696 C48.64,8.696 39.9,10.596 39.9,12.61 C39.9,14.624 42.218,13.712 42.142,16.524 L41.99,22.224 C41.876,25.948 40.128,24.314 40.128,26.138 C40.128,28.298 43.6067368,28.4116842 45.2653296,28.4176676 L45.524,28.418 L45.524,28.418 L45.6382624,28.4182639 L45.6382624,28.4182639 L45.8982398,28.4182639 C47.762609,28.4167669 52.136,28.3296279 52.136,26.138 Z M75.81,28.532 C77.482,28.532 78.66,27.962 79.534,27.43 C80.408,26.86 80.978,26.328 81.32,26.328 C82.574,26.328 81.206,28.418 83.144,28.418 C83.562,28.418 91.884,28.228 91.884,25.34 C91.884,23.364 89.87,24.238 89.87,21.578 L89.87,3.414 C89.87,2.16 89.604,1.362 88.464,1.362 C88.35,1.362 78.66,2.084 78.66,4.896 C78.66,6.948 81.434,5.694 81.434,8.05 C81.434,8.468 81.396,9.722 80.826,9.722 C80.408,9.722 78.926,8.582 76.304,8.582 C71.06,8.582 66.956,13.522 66.956,18.576 C66.956,23.25 70.832,28.532 75.81,28.532 Z M79.078,23.782 C76.722,23.782 76.266,20.666 76.266,18.88 C76.266,17.094 76.722,12.724 79.268,12.724 C81.472,12.724 81.472,15.954 81.472,17.436 L81.4726997,17.6880129 C81.4728852,17.7330048 81.4730811,17.7794271 81.4732517,17.8271834 L81.4731356,18.2903999 C81.4618886,20.3213694 81.2687442,23.782 79.078,23.782 Z M108.642,28.532 C111.416,28.532 114.38,26.176 114.38,24.01 C114.38,23.2156774 114.038356,23.2754651 113.619566,23.2592095 L113.513415,23.2530231 C112.868699,23.1999396 112.1,22.8013548 112.1,18.918 L112.1,15.118 C112.1,9.418 106.172,8.582 104.006,8.582 C100.396,8.582 93.974,10.672 93.974,13.902 C93.974,15.118 94.886,15.992 96.102,15.992 C99.484,15.992 99.712,11.888 101.992,11.888 C103.74,11.888 103.778,14.51 103.778,15.764 C103.778,16.961 103.370688,17.0524375 102.479691,17.0565937 L102.211894,17.0562859 C102.165045,17.0561319 102.117083,17.056 102.068,17.056 C95.38,17.056 92.796,20.4 92.796,23.098 C92.796,26.86 95.95,28.532 99.104,28.532 C100.852,28.532 101.992,28.038 102.828,27.544 C103.664,27.088 104.158,26.594 104.614,26.594 C105.564,26.594 105.64,28.532 108.642,28.532 Z M102.334,24.314 C101.232,24.314 100.7,23.25 100.7,22.262 C100.7,21.046 101.574,19.83 102.866,19.83 C103.833273,19.83 103.889802,20.615124 103.892086,21.385973 L103.892,21.616 L103.892,21.616 C103.892,22.756 103.778,24.314 102.334,24.314 Z M139.232,28.532 C140.106,28.532 141.132,28 142.386,25.606 L148.618,13.484 C149.72,11.356 152.19,12.192 152.19,10.368 C152.19,8.696 149.34,8.696 148.238,8.696 C148.111333,8.696 147.947136,8.69412346 147.755311,8.69339369 L147.448093,8.69339369 C145.820778,8.70233333 142.918,8.86066667 142.918,10.444 C142.918,11.546 144.21,11.926 144.21,12.876 C144.21,13.636 142.88,16.866 141.588,16.866 C140.638,16.866 139.232,14.016 139.232,13.142 C139.232,12.154 140.676,11.888 140.676,10.634 C140.676,8.8164878 136.529095,8.70106365 134.742468,8.69584121 L134.254,8.696 L134.254,8.696 C127.11,8.696 126.616,10.026 126.616,10.976 C126.616,13.028 128.744,11.85 129.846,13.94 L136.192,25.758 C136.8,26.898 137.75,28.532 139.232,28.532 Z M170.734,29.824 C172.254,29.824 174.99,27.278 174.99,23.022 C174.99,21.92 174.686,20.172 173.28,20.172 C172.026,20.172 171.342,22.452 168.644,22.452 C167.884,22.452 166.972,21.996 166.972,21.122 C166.972,19.564 173.356,16.448 173.356,11.584 C173.356,8.582 170.696,5.618 164.274,5.618 C159.6,5.618 152.456,8.924 152.456,12.268 C152.456,13.408 153.824,14.472 154.926,14.472 C156.674,14.472 157.13,12.268 159.448,12.268 C160.778,12.268 161.576,13.104 161.576,14.434 C161.576,17.132 156.978,21.882 155.04,23.706 C152.40375,26.20165 152.271059,26.3888238 152.265904,26.8840653 L152.265904,26.9674883 C152.265904,26.98198 152.265904,26.9968 152.265904,27.012 C152.265904,28.076 153.786,28 154.47,28 L167.01,28 C170.468,28 168.644,29.824 170.734,29.824 Z M194.674,29.824 C196.194,29.824 198.93,27.278 198.93,23.022 C198.93,21.92 198.626,20.172 197.22,20.172 C195.966,20.172 195.282,22.452 192.584,22.452 C191.824,22.452 190.912,21.996 190.912,21.122 C190.912,19.564 197.296,16.448 197.296,11.584 C197.296,8.582 194.636,5.618 188.214,5.618 C183.54,5.618 176.396,8.924 176.396,12.268 C176.396,13.408 177.764,14.472 178.866,14.472 C180.614,14.472 181.07,12.268 183.388,12.268 C184.718,12.268 185.516,13.104 185.516,14.434 C185.516,17.132 180.918,21.882 178.98,23.706 C176.34375,26.20165 176.211059,26.3888238 176.205904,26.8840653 L176.205904,26.9674883 C176.205904,26.98198 176.205904,26.9968 176.205904,27.012 C176.205904,28.076 177.726,28 178.41,28 L190.95,28 C194.408,28 192.584,29.824 194.674,29.824 Z" id="title" fill="#000000" fill-rule="nonzero"></path>
    </g>
</svg>